# xmcd
# 
# Track frame offsets:
#     150
#     12277
#     21720
#     31962
#     43267
#     53917
#     63457
#     74515
#     85270
#     97672
#     111125
#     122925
#     135252
#     145650
#     157832
#     170457
#     184260
#     196682
#     207982
#     218012
#     230832
#     242022
#     253545
#     264310
#     274472
#     287617
#     298805
#     310895
#     322147
#     332592
# 
# Disc length: 4582
# 
# Revision: 3
# Processed by: cddbd v1.5.2PL0 Copyright (c) Steve Scherf et al.
# Submitted via: fre:ac v1.0.17
# 
DISCID=c411e41e
DTITLE=Jimmie Heap and The Melody Masters - Release Me
DYEAR=1992
DGENRE=Hillbilly
TTITLE0=Release Me
TTITLE1=Love In The Valley
TTITLE2=Just To Be With You
TTITLE3=(I Wanna Go Where You Go) Then I'll Be Happy
TTITLE4=Heartbreaker
TTITLE5=You're In Love With You
TTITLE6=Just For Tonight
TTITLE7=Girl With A Past
TTITLE8=Lifetime Of Shame
TTITLE9=You Don't Kiss Me 'cause You Love Me
TTITLE10=The One That I Won
TTITLE11=Ethyl In My Gas Tank (No Gal In My Arms)
TTITLE12=My First Love Affair
TTITLE13=Love Can Move Mountains
TTITLE14=Conscience, I'm Guilty
TTITLE15=This Song Is Just for You
TTITLE16=You Oughta Know
TTITLE17=I Told You So
TTITLE18=Butternut
TTITLE19=Long John
TTITLE20=Mingling
TTITLE21=Heap Of Boogie
TTITLE22=You're Nothing But A Nothin'
TTITLE23=That's All I Want From You
TTITLE24=I'll Follow The Crowd
TTITLE25=It Takes A Heap Of Lovin'
TTITLE26=Cry Cry Carling
TTITLE27=You Didn't Have Time
TTITLE28=Let's Do It Just Once
TTITLE29=This Night Won't Last Forever
EXTD=
EXTT0=
EXTT1=
EXTT2=
EXTT3=
EXTT4=
EXTT5=
EXTT6=
EXTT7=
EXTT8=
EXTT9=
EXTT10=
EXTT11=
EXTT12=
EXTT13=
EXTT14=
EXTT15=
EXTT16=
EXTT17=
EXTT18=
EXTT19=
EXTT20=
EXTT21=
EXTT22=
EXTT23=
EXTT24=
EXTT25=
EXTT26=
EXTT27=
EXTT28=
EXTT29=
PLAYORDER=
